<svg width="10" height="10" viewBox="0 0 10 10" fill="none" xmlns="http://www.w3.org/2000/svg">
<path fill-rule="evenodd" clip-rule="evenodd" d="M9.24469 0.994693C8.90996 0.659958 8.36725 0.659958 8.03251 0.994694L5.00091 4.0263L1.9684 0.993786C1.63366 0.659051 1.09095 0.659051 0.756214 0.993786C0.421479 1.32852 0.421479 1.87123 0.756214 2.20597L3.78872 5.23848L0.759412 8.26779C0.424677 8.60253 0.424677 9.14524 0.759412 9.47997C1.09415 9.81471 1.63686 9.81471 1.9716 9.47997L5.00091 6.45066L8.02931 9.47907C8.36405 9.8138 8.90676 9.8138 9.24149 9.47907C9.57623 9.14433 9.57623 8.60162 9.24149 8.26688L6.21309 5.23848L9.24469 2.20688C9.57943 1.87214 9.57943 1.32943 9.24469 0.994693Z" fill="white"/>
</svg>
